<?xml version="1.0" encoding="UTF-8" standalone="no"?>
<!-- Created with Inkscape (http://www.inkscape.org/) -->

<svg
   width="80.141479mm"
   height="8.6734381mm"
   viewBox="0 0 80.141479 8.6734381"
   version="1.1"
   id="svg2576"
   inkscape:version="1.2.2 (b0a8486541, 2022-12-01)"
   sodipodi:docname="Goedel2.svg"
   xmlns:inkscape="http://www.inkscape.org/namespaces/inkscape"
   xmlns:sodipodi="http://sodipodi.sourceforge.net/DTD/sodipodi-0.dtd"
   xmlns="http://www.w3.org/2000/svg"
   xmlns:svg="http://www.w3.org/2000/svg">
  <sodipodi:namedview
     id="namedview2578"
     pagecolor="#ffffff"
     bordercolor="#000000"
     borderopacity="0.25"
     inkscape:showpageshadow="2"
     inkscape:pageopacity="0.0"
     inkscape:pagecheckerboard="0"
     inkscape:deskcolor="#d1d1d1"
     inkscape:document-units="mm"
     showgrid="false"
     inkscape:zoom="0.914906"
     inkscape:cx="137.17256"
     inkscape:cy="207.1251"
     inkscape:window-width="2494"
     inkscape:window-height="1371"
     inkscape:window-x="66"
     inkscape:window-y="32"
     inkscape:window-maximized="1"
     inkscape:current-layer="layer1" />
  <defs
     id="defs2573" />
  <g
     inkscape:label="Layer 1"
     inkscape:groupmode="layer"
     id="layer1"
     transform="translate(-69.030406,-94.11536)">
    <path
       fill="none"
       stroke-width="0.281167"
       stroke-linecap="butt"
       stroke-linejoin="miter"
       stroke="#000000"
       stroke-opacity="1"
       stroke-miterlimit="10"
       d="M 69.17099,94.11536 V 98.1158"
       id="path1597" />
    <path
       fill="none"
       stroke-width="0.281167"
       stroke-linecap="butt"
       stroke-linejoin="miter"
       stroke="#000000"
       stroke-opacity="1"
       stroke-miterlimit="10"
       d="M 86.171846,94.11536 V 98.1158"
       id="path1599" />
    <g
       fill="#000000"
       fill-opacity="1"
       id="g1603"
       transform="matrix(0.35277777,0,0,0.35277777,44.670849,28.643381)">
      <g
         id="use1601"
         transform="translate(97.394997,208.539)">
        <path
           d="M 6.34375,-5.359375 C 6.34375,-6.53125 5.265625,-7.5625 3.765625,-7.5625 H 1.046875 V 0 h 0.96875 V -3.15625 H 3.84375 c 1.34375,0 2.5,-0.984375 2.5,-2.203125 z m -0.875,0 c 0,0.859375 -0.6875,1.578125 -1.953125,1.578125 h -1.53125 v -3.171875 h 1.53125 c 1.203125,0 1.953125,0.65625 1.953125,1.59375 z m 0,0"
           id="path2750" />
      </g>
    </g>
    <g
       fill="#000000"
       fill-opacity="1"
       id="g1607"
       transform="matrix(0.35277777,0,0,0.35277777,44.670849,28.643381)">
      <g
         id="use1605"
         transform="translate(103.45937,208.539)">
        <path
           d="M 6.953125,0 4.109375,-7.5625 H 3.15625 L 0.3125,0 h 0.796875 l 0.84375,-2.21875 H 5.125 L 5.953125,0 Z m -2.0625,-2.828125 H 2.1875 C 2.734375,-4.390625 2.328125,-3.25 2.890625,-4.8125 3.125,-5.453125 3.453125,-6.375 3.53125,-6.78125 h 0.015625 c 0.015625,0.15625 0.09375,0.421875 0.34375,1.140625 z m 0,0"
           id="path2762" />
      </g>
    </g>
    <g
       fill="#000000"
       fill-opacity="1"
       id="g1611"
       transform="matrix(0.35277777,0,0,0.35277777,44.670849,28.643381)">
      <g
         id="use1609"
         transform="translate(114.3652,208.539)">
        <path
           d="M 7.859375,-3.8125 C 7.859375,-4.03125 7.65625,-4.03125 7.5,-4.03125 H 0.96875 c -0.15625,0 -0.359375,0 -0.359375,0.21875 0,0.21875 0.203125,0.21875 0.375,0.21875 H 7.5 c 0.15625,0 0.359375,0 0.359375,-0.21875 z m 0,2.171875 c 0,-0.21875 -0.203125,-0.21875 -0.359375,-0.21875 H 0.984375 c -0.171875,0 -0.375,0 -0.375,0.21875 0,0.21875 0.203125,0.21875 0.359375,0.21875 H 7.5 c 0.15625,0 0.359375,0 0.359375,-0.21875 z m 0,0"
           id="path2742" />
      </g>
    </g>
    <g
       fill="#000000"
       fill-opacity="1"
       id="g1615"
       transform="matrix(0.35277777,0,0,0.35277777,44.670849,28.643381)">
      <g
         id="use1613"
         transform="translate(126.48302,208.539)">
        <path
           d="M 6.109375,0 V -0.71875 H 5.0625 l -2.875,0.015625 H 1.84375 L 6.046875,-7.125 V -7.5625 H 0.75 v 0.671875 h 2.1875 c 0.125,0 0.265625,-0.015625 0.390625,-0.015625 H 4.8125 l -4.203125,6.4375 V 0 Z m 0,0"
           id="path2730" />
      </g>
    </g>
    <g
       fill="#000000"
       fill-opacity="1"
       id="g1619"
       transform="matrix(0.35277777,0,0,0.35277777,44.670849,28.643381)">
      <g
         id="use1617"
         transform="translate(133.153,210.17599)">
        <path
           d="M 3.625,0 V -0.5 H 2.5625 V -5.390625 H 2.375 c -0.515625,0.46875 -1.15625,0.5 -1.640625,0.515625 v 0.515625 C 1.046875,-4.375 1.4375,-4.390625 1.84375,-4.546875 V -0.5 H 0.78125 V 0 Z m 0,0"
           id="path2718" />
      </g>
    </g>
    <path
       fill="none"
       stroke-width="0.281167"
       stroke-linecap="butt"
       stroke-linejoin="miter"
       stroke="#000000"
       stroke-opacity="1"
       stroke-miterlimit="10"
       d="M 110.17176,94.11536 V 98.1158"
       id="path1621" />
    <g
       fill="#000000"
       fill-opacity="1"
       id="g1627"
       transform="matrix(0.35277777,0,0,0.35277777,44.670849,28.643381)">
      <g
         id="use1623"
         transform="translate(161.563,208.539)">
        <path
           d="m 5.4375,-2.0625 c 0,-0.703125 -0.328125,-1.234375 -0.578125,-1.5 -0.5,-0.53125 -0.875,-0.640625 -1.875,-0.890625 -0.625,-0.15625 -0.796875,-0.1875 -1.125,-0.46875 C 1.78125,-5 1.46875,-5.3125 1.46875,-5.796875 c 0,-0.640625 0.59375,-1.296875 1.59375,-1.296875 0.921875,0 1.4375,0.359375 1.84375,0.703125 l 0.171875,-0.875 C 4.46875,-7.625 3.875,-7.8125 3.078125,-7.8125 c -1.515625,0 -2.46875,1.078125 -2.46875,2.15625 0,0.46875 0.15625,0.921875 0.59375,1.375 0.453125,0.5 0.9375,0.625 1.578125,0.78125 0.921875,0.234375 1.03125,0.265625 1.34375,0.53125 0.21875,0.1875 0.453125,0.546875 0.453125,1.015625 0,0.71875 -0.59375,1.4375 -1.59375,1.4375 -0.4375,0 -1.421875,-0.109375 -2.34375,-0.875 l -0.15625,0.875 C 1.4375,0.09375 2.3125,0.234375 3,0.234375 c 1.4375,0 2.4375,-1.09375 2.4375,-2.296875 z m 0,0"
           id="path2758" />
      </g>
      <g
         id="use1625"
         transform="translate(167.623,208.539)">
        <path
           d="m 7.40625,-3.765625 c 0,-2.28125 -1.578125,-4.046875 -3.390625,-4.046875 -1.859375,0 -3.40625,1.78125 -3.40625,4.046875 0,2.3125 1.609375,4 3.390625,4 1.828125,0 3.40625,-1.703125 3.40625,-4 z M 6.4375,-3.921875 c 0,2.125 -1.1875,3.453125 -2.421875,3.453125 -1.296875,0 -2.4375,-1.359375 -2.4375,-3.453125 0,-2 1.203125,-3.1875 2.421875,-3.1875 1.265625,0 2.4375,1.234375 2.4375,3.1875 z m 0,0"
           id="path2726" />
      </g>
    </g>
    <g
       fill="#000000"
       fill-opacity="1"
       id="g1631"
       transform="matrix(0.35277777,0,0,0.35277777,44.670849,28.643381)">
      <g
         id="use1629"
         transform="translate(175.34773,208.539)">
        <path
           d="M 6.953125,0 4.109375,-7.5625 H 3.15625 L 0.3125,0 h 0.796875 l 0.84375,-2.21875 H 5.125 L 5.953125,0 Z m -2.0625,-2.828125 H 2.1875 C 2.734375,-4.390625 2.328125,-3.25 2.890625,-4.8125 3.125,-5.453125 3.453125,-6.375 3.53125,-6.78125 h 0.015625 c 0.015625,0.15625 0.09375,0.421875 0.34375,1.140625 z m 0,0"
           id="path2766" />
      </g>
    </g>
    <g
       fill="#000000"
       fill-opacity="1"
       id="g1635"
       transform="matrix(0.35277777,0,0,0.35277777,44.670849,28.643381)">
      <g
         id="use1633"
         transform="translate(186.26448,208.539)">
        <path
           d="M 7.859375,-3.8125 C 7.859375,-4.03125 7.65625,-4.03125 7.5,-4.03125 H 0.96875 c -0.15625,0 -0.359375,0 -0.359375,0.21875 0,0.21875 0.203125,0.21875 0.375,0.21875 H 7.5 c 0.15625,0 0.359375,0 0.359375,-0.21875 z m 0,2.171875 c 0,-0.21875 -0.203125,-0.21875 -0.359375,-0.21875 H 0.984375 c -0.171875,0 -0.375,0 -0.375,0.21875 0,0.21875 0.203125,0.21875 0.359375,0.21875 H 7.5 c 0.15625,0 0.359375,0 0.359375,-0.21875 z m 0,0"
           id="path2746" />
      </g>
    </g>
    <g
       fill="#000000"
       fill-opacity="1"
       id="g1639"
       transform="matrix(0.35277777,0,0,0.35277777,44.670849,28.643381)">
      <g
         id="use1637"
         transform="translate(198.38231,208.539)">
        <path
           d="M 6.109375,0 V -0.71875 H 5.0625 l -2.875,0.015625 H 1.84375 L 6.046875,-7.125 V -7.5625 H 0.75 v 0.671875 h 2.1875 c 0.125,0 0.265625,-0.015625 0.390625,-0.015625 H 4.8125 l -4.203125,6.4375 V 0 Z m 0,0"
           id="path2734" />
      </g>
    </g>
    <g
       fill="#000000"
       fill-opacity="1"
       id="g1643"
       transform="matrix(0.35277777,0,0,0.35277777,44.670849,28.643381)">
      <g
         id="use1641"
         transform="translate(205.048,210.17599)">
        <path
           d="M 3.796875,0 V -0.609375 H 2.25 c -0.09375,0 -0.1875,0 -0.28125,0 H 1.0625 l 1.234375,-1.09375 C 2.4375,-1.828125 2.828125,-2.125 2.984375,-2.25 c 0.34375,-0.3125 0.8125,-0.734375 0.8125,-1.421875 0,-0.90625 -0.671875,-1.71875 -1.8125,-1.71875 -0.84375,0 -1.359375,0.453125 -1.640625,1.265625 l 0.375,0.46875 c 0.1875,-0.671875 0.46875,-1.1875 1.15625,-1.1875 0.671875,0 1.1875,0.46875 1.1875,1.1875 0,0.65625 -0.390625,1.03125 -0.875,1.484375 -0.15625,0.15625 -0.578125,0.515625 -0.75,0.6875 C 1.203125,-1.28125 0.65625,-0.75 0.421875,-0.546875 V 0 Z m 0,0"
           id="path2714" />
      </g>
    </g>
    <path
       fill="none"
       stroke-width="0.281167"
       stroke-linecap="butt"
       stroke-linejoin="miter"
       stroke="#000000"
       stroke-opacity="1"
       stroke-miterlimit="10"
       d="M 129.17215,94.11536 V 98.1158"
       id="path1645" />
    <g
       fill="#000000"
       fill-opacity="1"
       id="g1651"
       transform="matrix(0.35277777,0,0,0.35277777,44.670849,28.643381)">
      <g
         id="use1647"
         transform="translate(229.757,208.539)">
        <path
           d="M 6.109375,0 V -0.71875 H 5.0625 l -2.875,0.015625 H 1.84375 L 6.046875,-7.125 V -7.5625 H 0.75 v 0.671875 h 2.1875 c 0.125,0 0.265625,-0.015625 0.390625,-0.015625 H 4.8125 l -4.203125,6.4375 V 0 Z m 0,0"
           id="path2738" />
      </g>
      <g
         id="use1649"
         transform="translate(236.42355,208.539)">
        <path
           d="M 5.734375,-6.828125 V -7.53125 H 1.03125 V 0 H 2 V -3.4375 H 5.296875 V -4.09375 H 2 v -2.75 h 1.421875 c 0.140625,0 0.265625,0.015625 0.390625,0.015625 z m 0,0"
           id="path2754" />
      </g>
    </g>
    <g
       fill="#000000"
       fill-opacity="1"
       id="g1655"
       transform="matrix(0.35277777,0,0,0.35277777,44.670849,28.643381)">
      <g
         id="use1653"
         transform="translate(242.32974,208.539)">
        <path
           d="M 6.40625,-0.484375 6.34375,-1.25 c -0.328125,0.21875 -0.640625,0.4375 -1.015625,0.546875 -0.34375,0.109375 -0.71875,0.125 -1.09375,0.125 -0.71875,0 -1.359375,-0.375 -1.796875,-0.9375 -0.5,-0.640625 -0.75,-1.453125 -0.75,-2.265625 0,-0.828125 0.25,-1.640625 0.75,-2.28125 C 2.875,-6.625 3.515625,-7 4.234375,-7 c 0.328125,0 0.65625,0.03125 0.984375,0.125 0.328125,0.109375 0.625,0.265625 0.90625,0.46875 L 6.28125,-7.3125 c -0.328125,-0.125 -0.671875,-0.234375 -1.015625,-0.296875 -0.34375,-0.0625 -0.6875,-0.09375 -1.03125,-0.09375 -0.96875,0 -1.84375,0.4375 -2.484375,1.15625 -0.6875,0.75 -1.03125,1.75 -1.03125,2.765625 0,1.015625 0.34375,2 1.03125,2.75 C 2.390625,-0.3125 3.265625,0.125 4.234375,0.125 4.609375,0.125 5,0.109375 5.359375,0 c 0.375,-0.09375 0.71875,-0.296875 1.046875,-0.484375 z m 0,0"
           id="path2722" />
      </g>
    </g>
    <path
       fill="none"
       stroke-width="0.562342"
       stroke-linecap="butt"
       stroke-linejoin="miter"
       stroke="#000000"
       stroke-opacity="1"
       stroke-miterlimit="10"
       d="m 69.17099,96.11627 h 61.50184"
       id="path1657" />
    <path
       fill="none"
       stroke-width="0.562342"
       stroke-linecap="butt"
       stroke-linejoin="miter"
       stroke="#000000"
       stroke-opacity="1"
       stroke-dasharray="1.59404, 1.99255"
       stroke-miterlimit="10"
       d="m 130.67283,96.11627 h 16.49926"
       id="path1659" />
    <path
       fill="none"
       stroke-width="0.562342"
       stroke-linecap="butt"
       stroke-linejoin="miter"
       stroke="#000000"
       stroke-opacity="1"
       stroke-miterlimit="10"
       d="m 147.17209,96.11627 h 1.57509"
       id="path1661" />
    <path
       fill="none"
       stroke-width="0.449869"
       stroke-linecap="round"
       stroke-linejoin="round"
       stroke="#000000"
       stroke-opacity="1"
       stroke-miterlimit="10"
       d="m 147.94654,95.04691 c 0.0661,0.40101 0.80064,1.00183 1.00046,1.06936 -0.19982,0.0661 -0.93431,0.66697 -1.00046,1.06798"
       id="path1663" />
  </g>
</svg>
