<?xml version="1.0" encoding="UTF-8" standalone="no"?>
<!-- Created with Inkscape (http://www.inkscape.org/) -->

<svg
   width="80.141479mm"
   height="8.8835773mm"
   viewBox="0 0 80.141479 8.8835773"
   version="1.1"
   id="svg2072"
   inkscape:version="1.2.2 (b0a8486541, 2022-12-01)"
   sodipodi:docname="ierarhia-Goedel.svg"
   xmlns:inkscape="http://www.inkscape.org/namespaces/inkscape"
   xmlns:sodipodi="http://sodipodi.sourceforge.net/DTD/sodipodi-0.dtd"
   xmlns="http://www.w3.org/2000/svg"
   xmlns:svg="http://www.w3.org/2000/svg">
  <sodipodi:namedview
     id="namedview2074"
     pagecolor="#ffffff"
     bordercolor="#000000"
     borderopacity="0.25"
     inkscape:showpageshadow="2"
     inkscape:pageopacity="0.0"
     inkscape:pagecheckerboard="0"
     inkscape:deskcolor="#d1d1d1"
     inkscape:document-units="mm"
     showgrid="false"
     inkscape:zoom="0.914906"
     inkscape:cx="-28.964724"
     inkscape:cy="328.44904"
     inkscape:window-width="2494"
     inkscape:window-height="1371"
     inkscape:window-x="66"
     inkscape:window-y="32"
     inkscape:window-maximized="1"
     inkscape:current-layer="layer1" />
  <defs
     id="defs2069" />
  <g
     inkscape:label="Layer 1"
     inkscape:groupmode="layer"
     id="layer1"
     transform="translate(-43.472178,-61.979149)">
    <path
       fill="none"
       stroke-width="0.281167"
       stroke-linecap="butt"
       stroke-linejoin="miter"
       stroke="#000000"
       stroke-opacity="1"
       stroke-miterlimit="10"
       d="m 43.612762,61.979149 v 3.99907"
       id="path1109" />
    <path
       fill="none"
       stroke-width="0.281167"
       stroke-linecap="butt"
       stroke-linejoin="miter"
       stroke="#000000"
       stroke-opacity="1"
       stroke-miterlimit="10"
       d="m 53.613185,61.979149 v 3.99907"
       id="path1111" />
    <g
       fill="#000000"
       fill-opacity="1"
       id="g1115"
       transform="matrix(0.35277777,0,0,0.35277777,19.112621,28.753276)">
      <g
         id="use1113"
         transform="translate(90.132004,117.131)">
        <path
           d="m 5.984375,0.015625 c 0,-0.03125 -0.03125,-0.0625 -0.0625,-0.109375 C 5.8125,-0.203125 5.75,-0.375 5.671875,-0.59375 L 3.453125,-6.796875 C 3.21875,-7.421875 2.625,-7.5625 2.109375,-7.5625 c -0.046875,0 -0.1875,0 -0.1875,0.109375 0,0.09375 0.09375,0.109375 0.09375,0.109375 0.359375,0.0625 0.4375,0.140625 0.703125,0.875 l 1.0625,2.96875 -3,2.984375 C 0.640625,-0.375 0.578125,-0.3125 0.578125,-0.171875 c 0,0.1875 0.15625,0.3125 0.328125,0.3125 0.171875,0 0.265625,-0.125 0.359375,-0.234375 l 2.625,-3.09375 c 0.453125,1.140625 0.96875,2.8125 1.140625,3.0625 0.1875,0.25 0.296875,0.25 0.578125,0.25 h 0.25 c 0.109375,-0.015625 0.125,-0.078125 0.125,-0.109375 z m 0,0"
           id="path2244" />
      </g>
    </g>
    <g
       fill="#000000"
       fill-opacity="1"
       id="g1119"
       transform="matrix(0.35277777,0,0,0.35277777,19.112621,28.753276)">
      <g
         id="use1117"
         transform="translate(96.496002,118.768)">
        <path
           d="m 7.984375,-1.984375 c 0,-0.0625 -0.046875,-0.109375 -0.09375,-0.109375 C 7,-2.359375 6.34375,-3.09375 6.171875,-4.015625 6.15625,-4.0625 6.109375,-4.09375 6.0625,-4.09375 H 5.921875 c -0.0625,0 -0.109375,0.046875 -0.109375,0.140625 0.125,0.71875 0.546875,1.359375 1.15625,1.78125 H 0.640625 c -0.109375,0 -0.171875,0.09375 -0.171875,0.1875 0,0.078125 0.0625,0.171875 0.171875,0.171875 H 6.96875 C 6.359375,-1.390625 5.9375,-0.75 5.8125,-0.03125 c 0,0.09375 0.046875,0.140625 0.109375,0.140625 H 6.0625 c 0.046875,0 0.09375,-0.03125 0.109375,-0.078125 C 6.34375,-0.890625 7,-1.625 7.890625,-1.890625 c 0.046875,0 0.09375,-0.046875 0.09375,-0.09375 z m 0,0"
           id="path2236" />
      </g>
    </g>
    <path
       fill="none"
       stroke-width="0.281167"
       stroke-linecap="butt"
       stroke-linejoin="miter"
       stroke="#000000"
       stroke-opacity="1"
       stroke-miterlimit="10"
       d="m 66.613597,61.979149 v 3.99907"
       id="path1121" />
    <g
       fill="#000000"
       fill-opacity="1"
       id="g1135"
       transform="matrix(0.35277777,0,0,0.35277777,19.112621,28.753276)">
      <g
         id="use1123"
         transform="translate(112.754,117.131)">
        <path
           d="m 5.4375,-2.0625 c 0,-0.703125 -0.328125,-1.234375 -0.578125,-1.5 -0.5,-0.53125 -0.875,-0.640625 -1.875,-0.890625 -0.625,-0.15625 -0.796875,-0.1875 -1.125,-0.46875 C 1.78125,-5 1.46875,-5.3125 1.46875,-5.796875 c 0,-0.640625 0.59375,-1.296875 1.59375,-1.296875 0.921875,0 1.4375,0.359375 1.84375,0.703125 l 0.171875,-0.875 C 4.46875,-7.625 3.875,-7.8125 3.078125,-7.8125 c -1.515625,0 -2.46875,1.078125 -2.46875,2.15625 0,0.46875 0.15625,0.921875 0.59375,1.375 0.453125,0.5 0.9375,0.625 1.578125,0.78125 0.921875,0.234375 1.03125,0.265625 1.34375,0.53125 0.21875,0.1875 0.453125,0.546875 0.453125,1.015625 0,0.71875 -0.59375,1.4375 -1.59375,1.4375 -0.4375,0 -1.421875,-0.109375 -2.34375,-0.875 l -0.15625,0.875 C 1.4375,0.09375 2.3125,0.234375 3,0.234375 c 1.4375,0 2.4375,-1.09375 2.4375,-2.296875 z m 0,0"
           id="path2320" />
      </g>
      <g
         id="use1125"
         transform="translate(118.814,117.131)">
        <path
           d="m 4.859375,-4.84375 h -0.8125 C 2.625,-1.375 2.609375,-0.875 2.59375,-0.625 H 2.578125 c -0.0625,-0.734375 -0.9375,-2.75 -0.96875,-2.859375 L 1.015625,-4.84375 H 0.15625 L 2.265625,0 1.875,0.984375 c -0.28125,0.625 -0.46875,0.625 -0.625,0.625 -0.171875,0 -0.515625,-0.03125 -0.84375,-0.171875 l 0.0625,0.71875 C 0.703125,2.203125 1.015625,2.234375 1.25,2.234375 1.640625,2.234375 2.046875,2.109375 2.484375,1 Z m 0,0"
           id="path2308" />
      </g>
      <g
         id="use1127"
         transform="translate(123.84419,117.131)">
        <path
           d="M 3.921875,-1.390625 C 3.921875,-2 3.515625,-2.359375 3.5,-2.40625 3.078125,-2.78125 2.78125,-2.84375 2.234375,-2.9375 c -0.59375,-0.125 -1.09375,-0.234375 -1.09375,-0.765625 0,-0.6875 0.78125,-0.6875 0.921875,-0.6875 0.34375,0 0.921875,0.046875 1.546875,0.421875 l 0.125,-0.703125 C 3.171875,-4.9375 2.71875,-5.03125 2.171875,-5.03125 c -0.28125,0 -1.8125,0 -1.8125,1.4375 0,0.53125 0.3125,0.875 0.59375,1.078125 0.328125,0.25 0.578125,0.296875 1.171875,0.40625 0.390625,0.078125 1.03125,0.21875 1.03125,0.796875 0,0.75 -0.859375,0.75 -1.03125,0.75 -0.875,0 -1.5,-0.40625 -1.6875,-0.53125 l -0.125,0.734375 C 0.65625,-0.1875 1.25,0.125 2.140625,0.125 c 0.1875,0 0.796875,0 1.265625,-0.359375 0.328125,-0.25 0.515625,-0.6875 0.515625,-1.15625 z m 0,0"
           id="path2248" />
      </g>
      <g
         id="use1129"
         transform="translate(128.02565,117.131)">
        <path
           d="M 3.625,-0.296875 3.453125,-0.9375 C 3.15625,-0.703125 2.8125,-0.578125 2.46875,-0.578125 c -0.40625,0 -0.5625,-0.328125 -0.5625,-0.90625 v -2.71875 H 3.453125 V -4.84375 H 1.90625 v -1.390625 h -0.75 V -4.84375 H 0.203125 v 0.640625 H 1.125 v 2.90625 c 0,0.65625 0.15625,1.421875 0.90625,1.421875 0.765625,0 1.3125,-0.28125 1.59375,-0.421875 z m 0,0"
           id="path2284" />
      </g>
      <g
         id="use1131"
         transform="translate(131.96492,117.131)">
        <path
           d="m 4.515625,-2.390625 c 0,-0.375 -0.015625,-1.1875 -0.4375,-1.84375 C 3.625,-4.90625 2.96875,-5.03125 2.578125,-5.03125 c -1.21875,0 -2.203125,1.15625 -2.203125,2.5625 0,1.4375 1.046875,2.59375 2.359375,2.59375 0.6875,0 1.3125,-0.265625 1.734375,-0.578125 L 4.40625,-1.15625 C 3.71875,-0.59375 3,-0.546875 2.75,-0.546875 c -0.875,0 -1.578125,-0.765625 -1.609375,-1.84375 z m -0.625,-0.59375 h -2.6875 c 0.171875,-0.828125 0.75,-1.375 1.375,-1.375 0.5625,0 1.171875,0.375 1.3125,1.375 z m 0,0"
           id="path2272" />
      </g>
      <g
         id="use1133"
         transform="translate(136.81403,117.131)">
        <path
           d="m 7.78125,0 v -3.25 c 0,-0.734375 -0.171875,-1.71875 -1.5,-1.71875 -0.65625,0 -1.21875,0.3125 -1.625,0.90625 C 4.375,-4.890625 3.609375,-4.96875 3.265625,-4.96875 c -0.796875,0 -1.296875,0.453125 -1.59375,0.84375 V -4.90625 H 0.890625 V 0 h 0.84375 v -2.671875 c 0,-0.734375 0.296875,-1.625 1.09375,-1.625 1.015625,0 1.078125,0.703125 1.078125,1.125 V 0 H 4.75 v -2.671875 c 0,-0.734375 0.296875,-1.625 1.109375,-1.625 1.015625,0 1.0625,0.703125 1.0625,1.125 V 0 Z m 0,0"
           id="path2260" />
      </g>
    </g>
    <g
       fill="#000000"
       fill-opacity="1"
       id="g1139"
       transform="matrix(0.35277777,0,0,0.35277777,19.112621,28.753276)">
      <g
         id="use1137"
         transform="translate(149.11295,117.131)">
        <path
           d="M 7.03125,-6.796875 V -7.5 H 0.390625 v 0.703125 h 1.46875 c 0.125,0 0.25,-0.015625 0.390625,-0.015625 H 3.234375 V 0 h 0.96875 v -6.8125 h 0.96875 c 0.125,0 0.265625,0.015625 0.390625,0.015625 z m 0,0"
           id="path2304" />
      </g>
    </g>
    <path
       fill="none"
       stroke-width="0.281167"
       stroke-linecap="butt"
       stroke-linejoin="miter"
       stroke="#000000"
       stroke-opacity="1"
       stroke-miterlimit="10"
       d="m 85.613986,61.979149 v 3.99907"
       id="path1141" />
    <g
       fill="#000000"
       fill-opacity="1"
       id="g1155"
       transform="matrix(0.35277777,0,0,0.35277777,19.112621,28.753276)">
      <g
         id="use1143"
         transform="translate(167.218,117.131)">
        <path
           d="m 5.4375,-2.0625 c 0,-0.703125 -0.328125,-1.234375 -0.578125,-1.5 -0.5,-0.53125 -0.875,-0.640625 -1.875,-0.890625 -0.625,-0.15625 -0.796875,-0.1875 -1.125,-0.46875 C 1.78125,-5 1.46875,-5.3125 1.46875,-5.796875 c 0,-0.640625 0.59375,-1.296875 1.59375,-1.296875 0.921875,0 1.4375,0.359375 1.84375,0.703125 l 0.171875,-0.875 C 4.46875,-7.625 3.875,-7.8125 3.078125,-7.8125 c -1.515625,0 -2.46875,1.078125 -2.46875,2.15625 0,0.46875 0.15625,0.921875 0.59375,1.375 0.453125,0.5 0.9375,0.625 1.578125,0.78125 0.921875,0.234375 1.03125,0.265625 1.34375,0.53125 0.21875,0.1875 0.453125,0.546875 0.453125,1.015625 0,0.71875 -0.59375,1.4375 -1.59375,1.4375 -0.4375,0 -1.421875,-0.109375 -2.34375,-0.875 l -0.15625,0.875 C 1.4375,0.09375 2.3125,0.234375 3,0.234375 c 1.4375,0 2.4375,-1.09375 2.4375,-2.296875 z m 0,0"
           id="path2324" />
      </g>
      <g
         id="use1145"
         transform="translate(173.278,117.131)">
        <path
           d="m 4.859375,-4.84375 h -0.8125 C 2.625,-1.375 2.609375,-0.875 2.59375,-0.625 H 2.578125 c -0.0625,-0.734375 -0.9375,-2.75 -0.96875,-2.859375 L 1.015625,-4.84375 H 0.15625 L 2.265625,0 1.875,0.984375 c -0.28125,0.625 -0.46875,0.625 -0.625,0.625 -0.171875,0 -0.515625,-0.03125 -0.84375,-0.171875 l 0.0625,0.71875 C 0.703125,2.203125 1.015625,2.234375 1.25,2.234375 1.640625,2.234375 2.046875,2.109375 2.484375,1 Z m 0,0"
           id="path2312" />
      </g>
      <g
         id="use1147"
         transform="translate(178.3082,117.131)">
        <path
           d="M 3.921875,-1.390625 C 3.921875,-2 3.515625,-2.359375 3.5,-2.40625 3.078125,-2.78125 2.78125,-2.84375 2.234375,-2.9375 c -0.59375,-0.125 -1.09375,-0.234375 -1.09375,-0.765625 0,-0.6875 0.78125,-0.6875 0.921875,-0.6875 0.34375,0 0.921875,0.046875 1.546875,0.421875 l 0.125,-0.703125 C 3.171875,-4.9375 2.71875,-5.03125 2.171875,-5.03125 c -0.28125,0 -1.8125,0 -1.8125,1.4375 0,0.53125 0.3125,0.875 0.59375,1.078125 0.328125,0.25 0.578125,0.296875 1.171875,0.40625 0.390625,0.078125 1.03125,0.21875 1.03125,0.796875 0,0.75 -0.859375,0.75 -1.03125,0.75 -0.875,0 -1.5,-0.40625 -1.6875,-0.53125 l -0.125,0.734375 C 0.65625,-0.1875 1.25,0.125 2.140625,0.125 c 0.1875,0 0.796875,0 1.265625,-0.359375 0.328125,-0.25 0.515625,-0.6875 0.515625,-1.15625 z m 0,0"
           id="path2252" />
      </g>
      <g
         id="use1149"
         transform="translate(182.48965,117.131)">
        <path
           d="M 3.625,-0.296875 3.453125,-0.9375 C 3.15625,-0.703125 2.8125,-0.578125 2.46875,-0.578125 c -0.40625,0 -0.5625,-0.328125 -0.5625,-0.90625 v -2.71875 H 3.453125 V -4.84375 H 1.90625 v -1.390625 h -0.75 V -4.84375 H 0.203125 v 0.640625 H 1.125 v 2.90625 c 0,0.65625 0.15625,1.421875 0.90625,1.421875 0.765625,0 1.3125,-0.28125 1.59375,-0.421875 z m 0,0"
           id="path2288" />
      </g>
      <g
         id="use1151"
         transform="translate(186.42892,117.131)">
        <path
           d="m 4.515625,-2.390625 c 0,-0.375 -0.015625,-1.1875 -0.4375,-1.84375 C 3.625,-4.90625 2.96875,-5.03125 2.578125,-5.03125 c -1.21875,0 -2.203125,1.15625 -2.203125,2.5625 0,1.4375 1.046875,2.59375 2.359375,2.59375 0.6875,0 1.3125,-0.265625 1.734375,-0.578125 L 4.40625,-1.15625 C 3.71875,-0.59375 3,-0.546875 2.75,-0.546875 c -0.875,0 -1.578125,-0.765625 -1.609375,-1.84375 z m -0.625,-0.59375 h -2.6875 c 0.171875,-0.828125 0.75,-1.375 1.375,-1.375 0.5625,0 1.171875,0.375 1.3125,1.375 z m 0,0"
           id="path2276" />
      </g>
      <g
         id="use1153"
         transform="translate(191.27802,117.131)">
        <path
           d="m 7.78125,0 v -3.25 c 0,-0.734375 -0.171875,-1.71875 -1.5,-1.71875 -0.65625,0 -1.21875,0.3125 -1.625,0.90625 C 4.375,-4.890625 3.609375,-4.96875 3.265625,-4.96875 c -0.796875,0 -1.296875,0.453125 -1.59375,0.84375 V -4.90625 H 0.890625 V 0 h 0.84375 v -2.671875 c 0,-0.734375 0.296875,-1.625 1.09375,-1.625 1.015625,0 1.078125,0.703125 1.078125,1.125 V 0 H 4.75 v -2.671875 c 0,-0.734375 0.296875,-1.625 1.109375,-1.625 1.015625,0 1.0625,0.703125 1.0625,1.125 V 0 Z m 0,0"
           id="path2264" />
      </g>
    </g>
    <g
       fill="#000000"
       fill-opacity="1"
       id="g1159"
       transform="matrix(0.35277777,0,0,0.35277777,19.112621,28.753276)">
      <g
         id="use1157"
         transform="translate(203.57693,117.131)">
        <path
           d="M 5.734375,-6.828125 V -7.53125 H 1.03125 V 0 H 2 V -3.4375 H 5.296875 V -4.09375 H 2 v -2.75 h 1.421875 c 0.140625,0 0.265625,0.015625 0.390625,0.015625 z m 0,0"
           id="path2296" />
      </g>
    </g>
    <path
       fill="none"
       stroke-width="0.281167"
       stroke-linecap="butt"
       stroke-linejoin="miter"
       stroke="#000000"
       stroke-opacity="1"
       stroke-miterlimit="10"
       d="m 103.61392,61.979149 v 3.99907"
       id="path1161" />
    <g
       fill="#000000"
       fill-opacity="1"
       id="g1175"
       transform="matrix(0.35277777,0,0,0.35277777,19.112621,28.753276)">
      <g
         id="use1163"
         transform="translate(215.217,117.131)">
        <path
           d="m 5.4375,-2.0625 c 0,-0.703125 -0.328125,-1.234375 -0.578125,-1.5 -0.5,-0.53125 -0.875,-0.640625 -1.875,-0.890625 -0.625,-0.15625 -0.796875,-0.1875 -1.125,-0.46875 C 1.78125,-5 1.46875,-5.3125 1.46875,-5.796875 c 0,-0.640625 0.59375,-1.296875 1.59375,-1.296875 0.921875,0 1.4375,0.359375 1.84375,0.703125 l 0.171875,-0.875 C 4.46875,-7.625 3.875,-7.8125 3.078125,-7.8125 c -1.515625,0 -2.46875,1.078125 -2.46875,2.15625 0,0.46875 0.15625,0.921875 0.59375,1.375 0.453125,0.5 0.9375,0.625 1.578125,0.78125 0.921875,0.234375 1.03125,0.265625 1.34375,0.53125 0.21875,0.1875 0.453125,0.546875 0.453125,1.015625 0,0.71875 -0.59375,1.4375 -1.59375,1.4375 -0.4375,0 -1.421875,-0.109375 -2.34375,-0.875 l -0.15625,0.875 C 1.4375,0.09375 2.3125,0.234375 3,0.234375 c 1.4375,0 2.4375,-1.09375 2.4375,-2.296875 z m 0,0"
           id="path2328" />
      </g>
      <g
         id="use1165"
         transform="translate(221.27701,117.131)">
        <path
           d="m 4.859375,-4.84375 h -0.8125 C 2.625,-1.375 2.609375,-0.875 2.59375,-0.625 H 2.578125 c -0.0625,-0.734375 -0.9375,-2.75 -0.96875,-2.859375 L 1.015625,-4.84375 H 0.15625 L 2.265625,0 1.875,0.984375 c -0.28125,0.625 -0.46875,0.625 -0.625,0.625 -0.171875,0 -0.515625,-0.03125 -0.84375,-0.171875 l 0.0625,0.71875 C 0.703125,2.203125 1.015625,2.234375 1.25,2.234375 1.640625,2.234375 2.046875,2.109375 2.484375,1 Z m 0,0"
           id="path2316" />
      </g>
      <g
         id="use1167"
         transform="translate(226.30719,117.131)">
        <path
           d="M 3.921875,-1.390625 C 3.921875,-2 3.515625,-2.359375 3.5,-2.40625 3.078125,-2.78125 2.78125,-2.84375 2.234375,-2.9375 c -0.59375,-0.125 -1.09375,-0.234375 -1.09375,-0.765625 0,-0.6875 0.78125,-0.6875 0.921875,-0.6875 0.34375,0 0.921875,0.046875 1.546875,0.421875 l 0.125,-0.703125 C 3.171875,-4.9375 2.71875,-5.03125 2.171875,-5.03125 c -0.28125,0 -1.8125,0 -1.8125,1.4375 0,0.53125 0.3125,0.875 0.59375,1.078125 0.328125,0.25 0.578125,0.296875 1.171875,0.40625 0.390625,0.078125 1.03125,0.21875 1.03125,0.796875 0,0.75 -0.859375,0.75 -1.03125,0.75 -0.875,0 -1.5,-0.40625 -1.6875,-0.53125 l -0.125,0.734375 C 0.65625,-0.1875 1.25,0.125 2.140625,0.125 c 0.1875,0 0.796875,0 1.265625,-0.359375 0.328125,-0.25 0.515625,-0.6875 0.515625,-1.15625 z m 0,0"
           id="path2256" />
      </g>
      <g
         id="use1169"
         transform="translate(230.48865,117.131)">
        <path
           d="M 3.625,-0.296875 3.453125,-0.9375 C 3.15625,-0.703125 2.8125,-0.578125 2.46875,-0.578125 c -0.40625,0 -0.5625,-0.328125 -0.5625,-0.90625 v -2.71875 H 3.453125 V -4.84375 H 1.90625 v -1.390625 h -0.75 V -4.84375 H 0.203125 v 0.640625 H 1.125 v 2.90625 c 0,0.65625 0.15625,1.421875 0.90625,1.421875 0.765625,0 1.3125,-0.28125 1.59375,-0.421875 z m 0,0"
           id="path2292" />
      </g>
      <g
         id="use1171"
         transform="translate(234.42792,117.131)">
        <path
           d="m 4.515625,-2.390625 c 0,-0.375 -0.015625,-1.1875 -0.4375,-1.84375 C 3.625,-4.90625 2.96875,-5.03125 2.578125,-5.03125 c -1.21875,0 -2.203125,1.15625 -2.203125,2.5625 0,1.4375 1.046875,2.59375 2.359375,2.59375 0.6875,0 1.3125,-0.265625 1.734375,-0.578125 L 4.40625,-1.15625 C 3.71875,-0.59375 3,-0.546875 2.75,-0.546875 c -0.875,0 -1.578125,-0.765625 -1.609375,-1.84375 z m -0.625,-0.59375 h -2.6875 c 0.171875,-0.828125 0.75,-1.375 1.375,-1.375 0.5625,0 1.171875,0.375 1.3125,1.375 z m 0,0"
           id="path2280" />
      </g>
      <g
         id="use1173"
         transform="translate(239.27702,117.131)">
        <path
           d="m 7.78125,0 v -3.25 c 0,-0.734375 -0.171875,-1.71875 -1.5,-1.71875 -0.65625,0 -1.21875,0.3125 -1.625,0.90625 C 4.375,-4.890625 3.609375,-4.96875 3.265625,-4.96875 c -0.796875,0 -1.296875,0.453125 -1.59375,0.84375 V -4.90625 H 0.890625 V 0 h 0.84375 v -2.671875 c 0,-0.734375 0.296875,-1.625 1.09375,-1.625 1.015625,0 1.078125,0.703125 1.078125,1.125 V 0 H 4.75 v -2.671875 c 0,-0.734375 0.296875,-1.625 1.109375,-1.625 1.015625,0 1.0625,0.703125 1.0625,1.125 V 0 Z m 0,0"
           id="path2268" />
      </g>
    </g>
    <g
       fill="#000000"
       fill-opacity="1"
       id="g1179"
       transform="matrix(0.35277777,0,0,0.35277777,19.112621,28.753276)">
      <g
         id="use1177"
         transform="translate(251.57594,117.131)">
        <path
           d="M 5.734375,-6.828125 V -7.53125 H 1.03125 V 0 H 2 V -3.4375 H 5.296875 V -4.09375 H 2 v -2.75 h 1.421875 c 0.140625,0 0.265625,0.015625 0.390625,0.015625 z m 0,0"
           id="path2300" />
      </g>
    </g>
    <g
       fill="#000000"
       fill-opacity="1"
       id="g1183"
       transform="matrix(0.35277777,0,0,0.35277777,19.112621,28.753276)">
      <g
         id="use1181"
         transform="translate(257.793,118.768)">
        <path
           d="M 4.921875,-1.90625 C 5,-2.234375 5.09375,-2.609375 5.09375,-2.921875 c 0,-0.21875 -0.046875,-0.40625 -0.1875,-0.53125 -0.046875,-0.03125 -0.125,-0.0625 -0.203125,-0.0625 -0.09375,0 -0.203125,0.046875 -0.296875,0.140625 -0.078125,0.078125 -0.109375,0.171875 -0.109375,0.265625 0,0.09375 0.03125,0.171875 0.109375,0.21875 0.1875,0.171875 0.296875,0.40625 0.296875,0.671875 0,0.09375 -0.015625,0.171875 -0.03125,0.265625 C 4.5,-1.25 4,-0.53125 3.375,-0.53125 c -0.4375,0 -0.71875,-0.265625 -0.8125,-0.640625 0.109375,-0.234375 0.203125,-0.484375 0.265625,-0.734375 0.015625,-0.046875 0.015625,-0.125 0.015625,-0.171875 0,-0.140625 -0.0625,-0.25 -0.1875,-0.25 -0.15625,0 -0.28125,0.1875 -0.328125,0.375 -0.0625,0.265625 -0.09375,0.515625 -0.09375,0.75 C 1.96875,-0.8125 1.578125,-0.53125 1.15625,-0.53125 c -0.5,0 -0.734375,-0.40625 -0.734375,-0.921875 0,-0.140625 0.015625,-0.296875 0.0625,-0.453125 C 0.59375,-2.359375 0.875,-2.8125 1.1875,-3.21875 1.21875,-3.25 1.234375,-3.296875 1.234375,-3.328125 c 0,-0.046875 -0.03125,-0.09375 -0.078125,-0.125 -0.03125,-0.015625 -0.046875,-0.03125 -0.078125,-0.03125 -0.0625,0 -0.125,0.03125 -0.15625,0.078125 -0.34375,0.453125 -0.5625,0.953125 -0.6875,1.453125 -0.0625,0.28125 -0.109375,0.546875 -0.109375,0.8125 0,0.6875 0.265625,1.21875 0.921875,1.21875 0.5,0 0.921875,-0.328125 1.25,-0.78125 0.125,0.46875 0.4375,0.78125 0.96875,0.78125 0.84375,0 1.40625,-1.015625 1.65625,-1.984375 z m 0,0"
           id="path2240" />
      </g>
    </g>
    <path
       fill="none"
       stroke-width="0.562342"
       stroke-linecap="butt"
       stroke-linejoin="miter"
       stroke="#000000"
       stroke-opacity="1"
       stroke-miterlimit="10"
       d="M 43.612762,63.978689 H 105.11461"
       id="path1185" />
    <path
       fill="none"
       stroke-width="0.562342"
       stroke-linecap="butt"
       stroke-linejoin="miter"
       stroke="#000000"
       stroke-opacity="1"
       stroke-dasharray="1.59404, 1.99255"
       stroke-miterlimit="10"
       d="m 105.11461,63.978689 h 16.49925"
       id="path1187" />
    <path
       fill="none"
       stroke-width="0.562342"
       stroke-linecap="butt"
       stroke-linejoin="miter"
       stroke="#000000"
       stroke-opacity="1"
       stroke-miterlimit="10"
       d="m 121.61386,63.978689 h 1.57509"
       id="path1189" />
    <path
       fill="none"
       stroke-width="0.449869"
       stroke-linecap="round"
       stroke-linejoin="round"
       stroke="#000000"
       stroke-opacity="1"
       stroke-miterlimit="10"
       d="m 122.38831,62.910709 c 0.0661,0.40101 0.80064,1.00183 1.00046,1.06798 -0.19982,0.0675 -0.93431,0.66834 -1.00046,1.06798"
       id="path1191" />
  </g>
</svg>
